<?xml version="1.0" standalone="no"?><!DOCTYPE svg PUBLIC "-//W3C//DTD SVG 1.1//EN" "http://www.w3.org/Graphics/SVG/1.1/DTD/svg11.dtd"><svg t="1560132887091" class="icon" style="" viewBox="0 0 1025 1024" version="1.1" xmlns="http://www.w3.org/2000/svg" p-id="3538" xmlns:xlink="http://www.w3.org/1999/xlink" width="200.1953125" height="200"><defs><style type="text/css"></style></defs><path d="M511.838953 0C229.61411 0 0.001552 229.589329 0.001552 511.814173S229.61411 1023.651574 511.838953 1023.651574 1023.676355 794.039016 1023.676355 511.814173 794.063797 0 511.838953 0z m0 946.997913c-239.972416 0-435.18374-195.211324-435.18374-435.18374S271.866537 76.630433 511.838953 76.630433 947.022694 271.864985 947.022694 511.814173 751.81137 946.997913 511.838953 946.997913z" p-id="3539" fill="#e6e6e6"></path><path d="M519.829517 754.690137m-53.007168 0a53.007168 53.007168 0 1 0 106.014336 0 53.007168 53.007168 0 1 0-106.014336 0Z" p-id="3540" fill="#e6e6e6"></path><path d="M508.935406 629.117503h5.807095A43.529988 43.529988 0 0 0 558.295718 585.564286v-331.004446A43.529988 43.529988 0 0 0 514.742501 211.006624h-5.807095A43.529988 43.529988 0 0 0 465.382189 254.55984v331.004446c0 24.064604 19.488613 43.553217 43.553217 43.553217z" p-id="3541" fill="#e6e6e6"></path></svg>